<svg xmlns="http://www.w3.org/2000/svg" style="display: none;">
    <symbol id="icon-phone" viewBox="0 0 18 29">
        <path d="M12.6 5.4V18.9H5.4V5.4H12.6ZM15.3 0H2.7C1.20938 0 0 1.20938 0 2.7V26.1C0 27.5906 1.20938 28.8 2.7 28.8H15.3C16.7906 28.8 18 27.5906 18 26.1V2.7C18 1.20938 16.7906 0 15.3 0ZM2.7 27C2.205 27 1.8 26.595 1.8 26.1V2.7C1.8 2.205 2.205 1.8 2.7 1.8H15.3C15.795 1.8 16.2 2.205 16.2 2.7V26.1C16.2 26.595 15.795 27 15.3 27H2.7ZM13.725 3.6H4.275C3.90375 3.6 3.6 3.90375 3.6 4.275V20.025C3.6 20.3963 3.90375 20.7 4.275 20.7H13.725C14.0962 20.7 14.4 20.3963 14.4 20.025V4.275C14.4 3.90375 14.0962 3.6 13.725 3.6ZM11.025 23.4H6.975C6.60375 23.4 6.3 23.7038 6.3 24.075V24.525C6.3 24.8963 6.60375 25.2 6.975 25.2H11.025C11.3962 25.2 11.7 24.8963 11.7 24.525V24.075C11.7 23.7038 11.3962 23.4 11.025 23.4Z" fill="currentColor"/>
    </symbol>
    <symbol id="icon-email" viewBox="0 0 12 9">
        <path d="M10.875 0H1.125C0.503906 0 0 0.503906 0 1.125V7.875C0 8.49609 0.503906 9 1.125 9H10.875C11.4961 9 12 8.49609 12 7.875V1.125C12 0.503906 11.4961 0 10.875 0ZM1.125 0.75H10.875C11.0813 0.75 11.25 0.91875 11.25 1.125V2.09531C10.7367 2.52891 10.0031 3.12656 7.72031 4.93828C7.32422 5.25234 6.54375 6.00938 6 6C5.45625 6.00938 4.67344 5.25234 4.27969 4.93828C1.99688 3.12656 1.26328 2.52891 0.75 2.09531V1.125C0.75 0.91875 0.91875 0.75 1.125 0.75ZM10.875 8.25H1.125C0.91875 8.25 0.75 8.08125 0.75 7.875V3.07031C1.28437 3.50859 2.12812 4.18594 3.81328 5.52422C4.29375 5.90859 5.14219 6.75469 6 6.75C6.85313 6.75703 7.69453 5.91797 8.18672 5.52422C9.87187 4.18594 10.7156 3.50859 11.25 3.07031V7.875C11.25 8.08125 11.0813 8.25 10.875 8.25Z" fill="currentColor"/>
    </symbol>
    <symbol id="icon-arrow-left" viewBox="0 0 12 8">
        <path d="M0.396446 3.64645C0.201184 3.84171 0.201184 4.15829 0.396446 4.35355L3.57843 7.53553C3.77369 7.7308 4.09027 7.7308 4.28553 7.53553C4.4808 7.34027 4.4808 7.02369 4.28553 6.82843L1.45711 4L4.28553 1.17157C4.4808 0.976311 4.4808 0.659728 4.28553 0.464466C4.09027 0.269204 3.77369 0.269204 3.57843 0.464466L0.396446 3.64645ZM11.25 3.5H0.75V4.5H11.25V3.5Z" fill="currentColor"/>
    </symbol>
    <symbol id="icon-arrow-right" viewBox="0 0 12 8">
        <path d="M11.6036 4.35355C11.7988 4.15829 11.7988 3.84171 11.6036 3.64645L8.42157 0.464466C8.22631 0.269204 7.90973 0.269204 7.71447 0.464466C7.5192 0.659728 7.5192 0.976311 7.71447 1.17157L10.5429 4L7.71447 6.82843C7.5192 7.02369 7.5192 7.34027 7.71447 7.53553C7.90973 7.7308 8.22631 7.7308 8.42157 7.53553L11.6036 4.35355ZM0.75 4.5H11.25V3.5H0.75V4.5Z" fill="currentColor"/>
    </symbol>
    <symbol id="icon-arrow-down-long" viewBox="0 0 8 28">
        <path d="M3.64645 27.3536C3.84171 27.5488 4.15829 27.5488 4.35355 27.3536L7.53553 24.1716C7.7308 23.9763 7.7308 23.6597 7.53553 23.4645C7.34027 23.2692 7.02369 23.2692 6.82843 23.4645L4 26.2929L1.17157 23.4645C0.976311 23.2692 0.659728 23.2692 0.464466 23.4645C0.269204 23.6597 0.269204 23.9763 0.464466 24.1716L3.64645 27.3536ZM3.5 0L3.5 27H4.5L4.5 0L3.5 0Z" fill="currentColor"/>
    </symbol>
    <symbol id="icon-twitter" viewBox="0 0 18 15">
        <path opacity="0.9" d="M16.1498 3.6434C16.1612 3.80329 16.1612 3.96321 16.1612 4.12311C16.1612 9 12.4493 14.6193 5.66499 14.6193C3.57488 14.6193 1.63326 14.014 0 12.9633C0.296966 12.9975 0.582471 13.0089 0.890863 13.0089C2.61546 13.0089 4.20305 12.4264 5.47083 11.4328C3.84899 11.3985 2.48985 10.3363 2.02156 8.87439C2.25001 8.90863 2.47842 8.93148 2.71829 8.93148C3.0495 8.93148 3.38074 8.88578 3.6891 8.80587C1.99875 8.4632 0.730936 6.97844 0.730936 5.18529V5.13962C1.22204 5.41373 1.79315 5.58505 2.39844 5.60787C1.40478 4.94541 0.753788 3.81471 0.753788 2.53551C0.753788 1.85025 0.936496 1.22207 1.25631 0.673843C3.07232 2.91243 5.80203 4.37433 8.86293 4.53426C8.80583 4.26015 8.77155 3.97464 8.77155 3.6891C8.77155 1.65608 10.4162 0 12.4607 0C13.5228 0 14.4822 0.445432 15.1561 1.16498C15.9898 1.00509 16.7893 0.696694 17.4975 0.274114C17.2233 1.13074 16.6409 1.85028 15.8756 2.3071C16.618 2.22719 17.3376 2.02156 18 1.73606C17.4975 2.46699 16.8693 3.11799 16.1498 3.6434Z" fill="currentColor"/>
    </symbol>
    <symbol id="icon-facebook" viewBox="0 0 18 18">
        <path opacity="0.9" d="M18 0.992411V17.0036C18 17.554 17.554 17.996 17.0076 17.996H12.4192V11.029H14.7576L15.1071 8.31295H12.4152V6.57723C12.4152 5.78973 12.6321 5.25536 13.7612 5.25536H15.1996V2.82455C14.9504 2.79241 14.0987 2.71607 13.1022 2.71607C11.029 2.71607 9.6067 3.9817 9.6067 6.30804V8.31295H7.26027V11.029H9.6067V18H0.992411C0.445982 18 0 17.554 0 17.0076V0.992411C0 0.445982 0.445982 0 0.992411 0H17.0036C17.554 0 18 0.445982 18 0.992411Z" fill="currentColor"/>
    </symbol>
    <symbol id="icon-instagram" viewBox="0 0 18 18">
        <path opacity="0.9" d="M9.00201 4.38405C6.44808 4.38405 4.38806 6.44406 4.38806 8.99799C4.38806 11.5519 6.44808 13.6119 9.00201 13.6119C11.5559 13.6119 13.616 11.5519 13.616 8.99799C13.616 6.44406 11.5559 4.38405 9.00201 4.38405ZM9.00201 11.9977C7.35159 11.9977 6.00234 10.6524 6.00234 8.99799C6.00234 7.34356 7.34757 5.99833 9.00201 5.99833C10.6564 5.99833 12.0017 7.34356 12.0017 8.99799C12.0017 10.6524 10.6524 11.9977 9.00201 11.9977ZM14.8809 4.19531C14.8809 4.79364 14.399 5.2715 13.8047 5.2715C13.2064 5.2715 12.7285 4.78963 12.7285 4.19531C12.7285 3.601 13.2104 3.11913 13.8047 3.11913C14.399 3.11913 14.8809 3.601 14.8809 4.19531ZM17.9368 5.28756C17.8685 3.84596 17.5392 2.56899 16.4831 1.5169C15.431 0.464807 14.154 0.135527 12.7124 0.063246C11.2267 -0.021082 6.77334 -0.021082 5.28756 0.063246C3.84997 0.131511 2.57301 0.460792 1.5169 1.51288C0.460792 2.56498 0.135527 3.84194 0.063246 5.28355C-0.021082 6.76933 -0.021082 11.2226 0.063246 12.7084C0.131511 14.15 0.460792 15.427 1.5169 16.4791C2.57301 17.5312 3.84596 17.8605 5.28756 17.9327C6.77334 18.0171 11.2267 18.0171 12.7124 17.9327C14.154 17.8645 15.431 17.5352 16.4831 16.4791C17.5352 15.427 17.8645 14.15 17.9368 12.7084C18.0211 11.2226 18.0211 6.77334 17.9368 5.28756ZM16.0173 14.3026C15.7041 15.0897 15.0977 15.696 14.3066 16.0133C13.122 16.4831 10.3111 16.3747 9.00201 16.3747C7.69292 16.3747 4.87797 16.4791 3.69738 16.0133C2.91032 15.7001 2.30396 15.0937 1.98673 14.3026C1.5169 13.118 1.62532 10.3071 1.62532 8.99799C1.62532 7.6889 1.52091 4.87395 1.98673 3.69336C2.29994 2.9063 2.9063 2.29994 3.69738 1.98271C4.88199 1.51288 7.69292 1.6213 9.00201 1.6213C10.3111 1.6213 13.126 1.5169 14.3066 1.98271C15.0937 2.29593 15.7001 2.90229 16.0173 3.69336C16.4871 4.87797 16.3787 7.6889 16.3787 8.99799C16.3787 10.3071 16.4871 13.122 16.0173 14.3026Z" fill="currentColor"/>
    </symbol>
    <symbol id="icon-youtube" viewBox="0 0 26 18">
        <path opacity="0.9" d="M25.0651 2.81639C24.7707 1.7078 23.9032 0.834703 22.8018 0.538406C20.8054 0 12.8 0 12.8 0C12.8 0 4.7947 0 2.79825 0.538406C1.69683 0.83475 0.829359 1.7078 0.534938 2.81639C0 4.82578 0 9.01819 0 9.01819C0 9.01819 0 13.2106 0.534938 15.22C0.829359 16.3286 1.69683 17.1653 2.79825 17.4616C4.7947 18 12.8 18 12.8 18C12.8 18 20.8053 18 22.8018 17.4616C23.9032 17.1653 24.7707 16.3286 25.0651 15.22C25.6 13.2106 25.6 9.01819 25.6 9.01819C25.6 9.01819 25.6 4.82578 25.0651 2.81639ZM10.1818 12.8246V5.2118L16.8727 9.01828L10.1818 12.8246Z" fill="currentColor"/>
    </symbol>
    <symbol id="icon-letter-M" viewBox="0 0 18 15">
        <path opacity="0.9" d="M2.13231 2.91379C2.15464 2.69423 2.06905 2.47467 1.90531 2.32582L0.227 0.301426V0H5.44428L9.47819 8.84557L13.0246 0H18V0.301426L16.5636 1.67831C16.4408 1.77135 16.3775 1.92764 16.4036 2.08022V12.2022C16.3775 12.3548 16.4408 12.5111 16.5636 12.6041L17.9665 13.981V14.2824H10.9072V13.981L12.3622 12.5706C12.5036 12.4292 12.5036 12.3845 12.5036 12.1687V3.98925L8.45855 14.2564H7.91152L3.20777 3.98925V10.87C3.16684 11.1602 3.26359 11.4505 3.46827 11.6589L5.35869 13.9512V14.2526H0V13.9549L1.89043 11.6589C2.09138 11.4505 2.18441 11.1565 2.13231 10.87V2.91379Z" fill="currentColor"/>
    </symbol>
    <symbol id="icon-axe" viewBox="0 0 26 21">
        <path d="M21.4264 6.39469L19.5372 4.50546L20.5028 3.53986C21.0024 3.04027 21.0024 2.23055 20.5028 1.73096L19.1463 0.374489C18.8965 0.124696 18.5692 0 18.2418 0C17.9145 0 17.5872 0.124696 17.3374 0.374489L16.3718 1.34009L15.4066 0.374489C15.1568 0.124696 14.8295 0 14.5022 0C14.1748 0 13.8475 0.124696 13.5977 0.374489L9.74131 4.23088C9.24173 4.73047 9.24173 5.5402 9.74131 6.03938L10.7069 7.00498L0.788751 16.9231C0.289166 17.4227 0.289166 18.2325 0.788751 18.732L2.14522 20.0885C2.39502 20.3383 2.72234 20.463 3.04967 20.463C3.377 20.463 3.70433 20.3383 3.95412 20.0885L13.8723 10.1703L15.7615 12.0596V16.6262H17.0404C21.9847 16.6262 25.993 12.6179 25.993 7.67362V6.39469H21.4264ZM18.2407 1.27894H18.2418L19.5983 2.63541L18.6327 3.60101L17.2759 2.24374L18.2407 1.27894ZM3.04967 19.1841L1.6932 17.8276L11.6114 7.90943L12.9678 9.2659L3.04967 19.1841ZM17.0404 15.3472V11.53L10.6458 5.13533L14.501 1.27894H14.5022L20.8968 7.67362H24.7141C24.7141 11.9049 21.2717 15.3472 17.0404 15.3472Z" fill="currentColor"/>
    </symbol>
    <symbol id="icon-react" viewBox="0 0 27 31">
        <path d="M13.4999 12.0535C11.6388 12.0535 10.1243 13.5675 10.1243 15.4285C10.1243 17.2896 11.6388 18.8035 13.4999 18.8035C15.361 18.8035 16.8755 17.2896 16.8755 15.4285C16.8755 13.5675 15.361 12.0535 13.4999 12.0535ZM13.4999 16.8749C12.7008 16.8749 12.0535 16.2271 12.0535 15.4285C12.0535 14.6294 12.7014 13.9821 13.4999 13.9821C14.2985 13.9821 14.9463 14.6294 14.9463 15.4285C14.9463 16.2271 14.2991 16.8749 13.4999 16.8749ZM24.8736 15.4285C25.8108 14.2069 26.4834 12.9804 26.7968 11.8125C27.1602 10.4498 27.0342 9.19564 26.4315 8.18495C25.3329 6.34679 22.7938 5.59585 19.59 5.86887C18.1887 2.27932 16.004 0 13.4999 0C10.9958 0 8.81109 2.27872 7.41047 5.86826C4.20604 5.59525 1.66756 6.34619 0.570089 8.18555C-0.0343956 9.19564 -0.160355 10.4498 0.203059 11.8125C0.516451 12.9804 1.18904 14.2069 2.1262 15.4285C1.18904 16.6501 0.516451 17.8766 0.203059 19.0446C-0.160355 20.4072 -0.0343956 21.6614 0.568281 22.6721C1.52352 24.2692 3.55756 25.0539 6.17619 25.0539C6.55949 25.0539 6.9898 24.9846 7.39661 24.9508C8.79663 28.5621 10.9874 30.857 13.4999 30.857C16.0125 30.857 18.2032 28.5621 19.6032 24.9508C20.01 24.9846 20.4403 25.0539 20.8236 25.0539C23.4399 25.0539 25.4763 24.2692 26.4297 22.6721C27.0342 21.6614 27.1608 20.4072 26.7968 19.0446C26.4834 17.8766 25.8108 16.6501 24.8736 15.4285ZM2.06774 11.3134C1.83631 10.4546 1.89055 9.73443 2.22624 9.17394C2.78191 8.2416 4.1982 7.72873 6.15208 7.72873C6.35277 7.72873 6.56973 7.745 6.78127 7.75585C6.44679 8.94432 6.19246 10.2371 6.02371 11.6057C5.05762 12.3531 4.1753 13.1293 3.41291 13.923C2.76685 13.025 2.28953 12.1403 2.06774 11.3134ZM5.81217 16.5573C5.39934 16.1837 5.01543 15.8076 4.65925 15.4285C5.01483 15.0494 5.39934 14.6734 5.81217 14.2997C5.79951 14.674 5.78445 15.0464 5.78445 15.4285C5.78445 15.8106 5.79891 16.1831 5.81217 16.5573ZM2.22444 21.6831C1.89116 21.1226 1.83631 20.4024 2.06834 19.5436C2.29013 18.7167 2.76745 17.832 3.41291 16.934C4.1753 17.7277 5.05822 18.504 6.02371 19.2513C6.19246 20.6218 6.44739 21.9151 6.78188 23.1048C4.50858 23.2223 2.83977 22.7119 2.22444 21.6831ZM18.7854 10.0683C18.2803 9.74769 17.7669 9.43129 17.2293 9.13176C16.8418 8.9154 16.4542 8.71531 16.0673 8.52004C16.8351 8.28982 17.5692 8.11745 18.2713 7.98968C18.4765 8.67376 18.6481 9.36747 18.7854 10.0683ZM13.4999 1.92857C14.9506 1.92857 16.4844 3.49733 17.6102 6.14549C16.3018 6.40525 14.9174 6.81808 13.5005 7.37194C12.083 6.81808 10.6987 6.40404 9.38966 6.14429C10.5155 3.49673 12.0493 1.92857 13.4999 1.92857ZM8.72852 7.98968C9.43064 8.11745 10.1647 8.28921 10.9319 8.52004C10.545 8.71531 10.1575 8.9154 9.77055 9.13176C9.23296 9.43129 8.71948 9.74769 8.21444 10.0683C8.35178 9.36747 8.52334 8.67376 8.72852 7.98968ZM8.21444 20.7887C8.71948 21.1094 9.23296 21.4258 9.77055 21.7253C10.1755 21.9513 10.5769 22.1164 10.9813 22.3195C10.1978 22.5564 9.4451 22.739 8.72913 22.8698C8.53386 22.2171 8.35848 21.5258 8.21444 20.7887ZM13.4999 28.9285C12.0438 28.9285 10.5034 27.3477 9.3764 24.6808C10.6914 24.4223 12.0746 24.0124 13.4999 23.4562C14.9252 24.013 16.3084 24.4223 17.6234 24.6808C16.4964 27.3477 14.956 28.9285 13.4999 28.9285ZM18.2713 22.8692C17.5559 22.739 16.8038 22.5564 16.0203 22.3195C16.4241 22.1164 16.8255 21.9513 17.2299 21.7259C17.7675 21.4264 18.2809 21.11 18.786 20.7893C18.6413 21.5252 18.4666 22.2159 18.2713 22.8692ZM19.1566 18.2051C18.2671 18.8511 17.313 19.4725 16.2915 20.042C15.3453 20.57 14.413 21.0177 13.5011 21.4041C12.5887 21.0177 11.6557 20.57 10.7083 20.042C9.68678 19.4719 8.73274 18.8511 7.84319 18.2051C7.75942 17.3179 7.71301 16.3922 7.71301 15.4285C7.71301 14.4648 7.75942 13.5391 7.84319 12.652C8.73274 12.0059 9.68678 11.3846 10.7083 10.815C11.6539 10.2877 12.5881 9.83387 13.4993 9.44756C14.4112 9.83387 15.3453 10.2877 16.2915 10.815C17.313 11.3852 18.2671 12.0059 19.1566 12.652C19.2398 13.5391 19.2868 14.4648 19.2868 15.4285C19.2868 16.3922 19.2398 17.3179 19.1566 18.2051ZM20.8484 7.72812C22.8016 7.72812 24.2185 8.2416 24.776 9.17334C25.1093 9.73383 25.1641 10.454 24.9321 11.3128C24.7103 12.1397 24.233 13.0244 23.5875 13.9224C22.8251 13.1287 21.9422 12.3525 20.9767 11.6051C20.808 10.2359 20.5536 8.94372 20.2192 7.75524C20.4307 7.74439 20.6477 7.72812 20.8484 7.72812ZM21.1877 14.2997C21.6005 14.6734 21.9844 15.0494 22.3406 15.4285C21.9844 15.8076 21.6005 16.1837 21.1877 16.5573C21.2003 16.1831 21.2154 15.8106 21.2154 15.4285C21.2154 15.0464 21.2009 14.674 21.1877 14.2997ZM24.7736 21.6831C24.1613 22.7119 22.4925 23.2223 20.218 23.1036C20.553 21.9139 20.8074 20.6212 20.9761 19.2513C21.9422 18.504 22.8245 17.7277 23.5869 16.934C24.2324 17.832 24.7103 18.7167 24.9315 19.5436C25.1635 20.4024 25.1093 21.1226 24.7736 21.6831Z" fill="currentColor"/>
    </symbol>
    <symbol id="icon-castle" viewBox="0 0 27 34">
        <path d="M5.625 13.5C5.63808 16.0987 5.59273 21.4288 3.2658 29.25H23.7329C21.4081 21.4579 21.3623 16.1151 21.375 13.5L24.2558 10.6192C24.4125 10.4625 24.5368 10.2765 24.6216 10.0717C24.7064 9.867 24.75 9.64756 24.75 9.42595V1.6875C24.75 0.755508 23.9945 0 23.0625 0H3.9375C3.00551 0 2.25 0.755508 2.25 1.6875V9.42602C2.25 9.87356 2.42782 10.3028 2.74423 10.6193L5.625 13.5ZM4.5 2.25H7.875V5.625H10.125V2.25H16.875V5.625H19.125V2.25H22.5V9.19301L19.1295 12.5635C19.1156 15.4394 19.0483 20.0403 20.784 27H6.21309C7.95059 20.0256 7.88477 15.4373 7.87029 12.5634L4.5 9.19301V2.25ZM15.4688 18H11.5312V14.0625C11.5312 12.9752 12.4127 12.0938 13.5 12.0938C14.5873 12.0938 15.4688 12.9752 15.4688 14.0625V18ZM27 32.3438V32.9062C27 33.3722 26.6222 33.75 26.1562 33.75H0.84375C0.377789 33.75 0 33.3722 0 32.9062V32.3438C0 31.8778 0.377789 31.5 0.84375 31.5H26.1562C26.6222 31.5 27 31.8778 27 32.3438Z" fill="currentColor"/>
    </symbol>
    <symbol id="icon-weights" viewBox="0 0 27 22">
        <path d="M26.7637 10.4241L22.1632 3.00036C22.0294 2.80039 21.8147 2.69999 21.6 2.69999C21.3852 2.69999 21.1705 2.80039 21.0368 3.00036L16.4362 10.4241C16.273 10.6679 16.1793 10.9607 16.2038 11.2526C16.4346 14.0231 18.7624 16.1999 21.6 16.1999C24.4375 16.1999 26.7654 14.0231 26.9961 11.2526C27.0206 10.9607 26.927 10.6679 26.7637 10.4241ZM21.6 14.8499C19.8458 14.8499 18.3283 13.7054 17.7702 12.1499H25.4145C24.8484 13.7206 23.3415 14.8499 21.6 14.8499ZM17.7917 10.8L21.6017 4.65073L25.4382 10.8H17.7917ZM22.6125 20.2499H14.175V5.30463C15.1154 5.06121 15.8503 4.32884 16.0996 3.39102L22.3555 1.29768C22.5323 1.23862 22.6276 1.04709 22.5686 0.870746L22.3543 0.230765C22.2952 0.0539998 22.1037 -0.0413436 21.9273 0.0177187L16.0878 1.97141C15.7684 0.836574 14.7369 0 13.5 0C12.0087 0 10.8 1.20867 10.8 2.69999C10.8 3.04635 10.8705 3.37414 10.9915 3.67662L4.64446 5.80033C4.4677 5.8594 4.37235 6.05093 4.43142 6.22727L4.64573 6.86725C4.70479 7.04402 4.89632 7.13936 5.07266 7.0803L11.8416 4.81568C12.1293 5.04181 12.4605 5.20971 12.8254 5.30421V21.2624C12.8254 21.4489 12.9765 21.5999 13.1629 21.5999H22.6129C22.7994 21.5999 22.9504 21.4489 22.9504 21.2624V20.5874C22.95 20.4009 22.7989 20.2499 22.6125 20.2499ZM12.15 2.69999C12.15 1.9558 12.7558 1.34999 13.5 1.34999C14.2442 1.34999 14.85 1.9558 14.85 2.69999C14.85 3.44417 14.2442 4.04998 13.5 4.04998C12.7558 4.04998 12.15 3.44417 12.15 2.69999ZM5.96324 8.40034C5.8295 8.19995 5.61477 8.09996 5.40004 8.09996C5.1853 8.09996 4.97057 8.20037 4.83684 8.40034L0.236309 15.824C0.0730443 16.0679 -0.0206116 16.3607 0.00385708 16.6526C0.234622 19.423 2.56252 21.5999 5.40004 21.5999C8.23756 21.5999 10.5655 19.423 10.7962 16.6526C10.8207 16.3607 10.727 16.0679 10.5638 15.824L5.96324 8.40034ZM5.40004 20.2499C3.64589 20.2499 2.12841 19.1054 1.57027 17.5499H9.21461C8.64846 19.1206 7.14153 20.2499 5.40004 20.2499ZM1.59179 16.1999L5.40172 10.0507L9.23824 16.1999H1.59179Z" fill="currentColor"/>
    </symbol>
    <symbol id="icon-skittles" viewBox="0 0 27 29">
        <path d="M26.7308 17.5624C25.9995 14.5022 23.9575 12.5446 23.6987 9.81064C23.5075 7.85864 24.8913 6.58168 24.7507 4.21903C24.6044 1.78324 22.8999 0.00562537 20.7004 0C18.5009 0.00562537 16.802 1.78324 16.6558 4.21903C16.5151 6.58168 17.8934 7.86426 17.7077 9.81064C17.449 12.5446 15.4013 14.5078 14.6757 17.5624C13.9725 20.5045 14.6982 25.4323 16.262 28.3237L16.5151 28.7963H24.8969L25.1501 28.3237C26.7083 25.4323 27.434 20.5045 26.7308 17.5624ZM22.9506 4.32591C23.0462 5.93476 22.0449 7.09921 21.8986 9.00059H19.5022C19.356 7.09359 18.349 5.94039 18.4503 4.32591C18.6528 0.945062 22.7481 0.945062 22.9506 4.32591ZM23.8 26.9961H17.6008C16.4195 24.4535 15.857 20.3188 16.4195 17.9787C17.0214 15.4585 18.7765 13.6471 19.3503 10.7951H22.0505C22.6243 13.6471 24.3794 15.4585 24.9813 17.9787C25.5382 20.3245 24.9757 24.4535 23.8 26.9961ZM9.2978 9.81627C9.11216 7.86426 10.4904 6.58731 10.3497 4.22465C10.2035 1.78324 8.499 0.0112507 6.29948 0.00562537C4.09996 0.00562537 2.4011 1.78324 2.24921 4.22465C2.10296 6.58731 3.4868 7.86426 3.30116 9.81627C3.04239 12.5558 0.994758 14.5134 0.269085 17.568C-0.434086 20.5101 0.291587 25.4435 1.85544 28.335L2.10858 28.8075H10.4904L10.7435 28.335C12.3074 25.4435 13.033 20.5157 12.3299 17.568C11.6042 14.5134 9.55657 12.5502 9.2978 9.81627ZM8.54963 4.33153C8.64526 5.94601 7.64394 7.09359 7.49768 9.00059H5.10128C4.95502 7.09359 3.94808 5.94601 4.04933 4.33153C4.25185 0.950687 8.34711 0.950687 8.54963 4.33153ZM9.39906 27.0018H3.1999C2.01857 24.4591 1.45604 20.3245 2.01857 17.9843C2.62049 15.4641 4.38123 13.6528 4.94939 10.8007H7.64957C8.22336 13.6528 9.97847 15.4641 10.5804 17.9843C11.1429 20.3245 10.5804 24.4591 9.39906 27.0018Z" fill="currentColor"/>
    </symbol>
    <symbol id="icon-brain" viewBox="0 0 27 26">
        <path d="M25.2951 11.4293C26.1642 8.72636 24.2985 6.80559 23.2572 6.20256C23.3897 4.3334 21.9737 2.51388 19.9477 2.26224C19.3546 0.904798 18.0066 0 16.4889 0C15.2684 0 14.1929 0.588143 13.5 1.48401C12.8071 0.588143 11.7316 0 10.5111 0C8.99338 0 7.64537 0.904798 7.05176 2.26224C5.02577 2.51388 3.60976 4.3334 3.74228 6.20256C2.70099 6.80608 0.835809 8.72636 1.70438 11.4293C0.639761 12.28 0 13.5715 0 14.9393C0 16.5638 0.864099 18.0354 2.24636 18.837C2.1332 21.2283 4.06737 23.2389 6.46213 23.1773C7.1689 24.5362 8.57597 25.4118 10.1374 25.4118C11.5222 25.4118 12.7436 24.7268 13.5 23.6865C14.2564 24.7268 15.4778 25.4118 16.8626 25.4118C18.424 25.4118 19.8311 24.5362 20.5379 23.1773C22.9326 23.2389 24.8663 21.2278 24.7536 18.837C26.1359 18.0354 27 16.5638 27 14.9393C27 13.5715 26.3602 12.28 25.2951 11.4293ZM12.7029 6.85274C12.7029 8.14765 11.8065 9.22914 10.601 9.53487C10.4288 9.57855 10.3116 9.73787 10.3116 9.91506V10.7181C10.3116 10.9697 10.5444 11.1603 10.7921 11.1097C11.5083 10.9638 12.1589 10.6427 12.7029 10.197V21.2675C12.7029 22.6765 11.5524 23.8235 10.1374 23.8235C8.55463 23.8235 7.94217 22.741 7.50193 21.4312C6.69342 21.5672 6.59415 21.5901 6.40108 21.5901C4.98607 21.5901 3.83559 20.4431 3.83559 19.034C3.83559 18.7258 3.87827 18.5804 4.01774 17.894C2.75509 17.3728 1.59369 16.6924 1.59369 14.9393C1.59369 13.2588 2.73574 12.6091 3.72342 12.0438C3.09805 10.7677 3.08812 10.5945 3.08812 10.1002C3.08812 8.41715 4.17507 7.695 5.53847 7.13763C5.4139 6.59664 5.33002 6.31324 5.33002 6.00551C5.33002 4.80739 6.30281 3.83162 7.5873 3.83162H7.60765L8.23947 3.84502C8.53279 2.70596 8.98544 1.58824 10.5111 1.58824C11.7192 1.58824 12.7029 2.56748 12.7029 3.77206V6.85274ZM22.9823 17.894C23.1217 18.5804 23.1644 18.7258 23.1644 19.034C23.1644 20.4431 22.0139 21.5901 20.5989 21.5901C20.4063 21.5901 20.3071 21.5672 19.4981 21.4312C19.0578 22.741 18.4454 23.8235 16.8626 23.8235C15.4476 23.8235 14.2971 22.6765 14.2971 21.2675V10.197C14.8411 10.6427 15.4917 10.9638 16.2079 11.1097C16.4556 11.1603 16.6884 10.9697 16.6884 10.7181V9.91506C16.6884 9.73787 16.5712 9.57855 16.399 9.53487C15.1935 9.22914 14.2971 8.14765 14.2971 6.85274V3.77206C14.2971 2.56748 15.2808 1.58824 16.4889 1.58824C18.0146 1.58824 18.4672 2.70596 18.76 3.84502L19.3919 3.83162H19.4122C20.6967 3.83162 21.6695 4.80739 21.6695 6.00551C21.6695 6.31324 21.5851 6.59713 21.461 7.13763C22.8239 7.6945 23.9114 8.41715 23.9114 10.1002C23.9114 10.5945 23.9015 10.7677 23.2761 12.0438C24.2638 12.6091 25.4058 13.2588 25.4058 14.9393C25.4058 16.6928 24.2449 17.3733 22.9823 17.894Z" fill="currentColor"/>
    </symbol>
    <symbol id="icon-dribble-logo" width="163" height="39" viewBox="0 0 163 39">
        <path d="M49.8022 15.6916C51.6678 15.6916 53.18 14.2098 53.18 12.3821C53.18 10.5542 51.6678 9.0727 49.8022 9.0727C47.9366 9.0727 46.4244 10.5542 46.4244 12.3821C46.4244 14.2098 47.9366 15.6916 49.8022 15.6916ZM161.279 26.9988C160.765 26.6449 160.368 26.5862 160.039 27.2735C154.366 39.3088 144.806 33.303 145.755 33.8316C147.876 32.8814 153.453 28.5002 152.61 22.4508C152.098 18.7537 148.859 17.1138 145.42 17.701C139.418 18.726 137.21 25.0673 138.334 30.6815C138.53 31.6456 138.882 32.4408 139.233 33.2198C132.45 38.6225 129.756 28.3833 129.451 27.1597C129.439 27.0942 134.688 22.8084 136.148 12.5957C137.679 1.89223 134.192 -0.0566975 130.628 0.00410902C124.031 0.116679 122.249 13.616 124.644 24.8668C124.443 24.9179 123.51 25.4244 122.01 25.4811C120.931 22.1548 116.319 19.2392 115.112 20.3628C112.092 23.1733 115.845 28.668 118.486 29.0989C116.899 38.6693 106.978 36.2991 108.825 24.3089C112.056 18.4325 114.513 9.6948 114.074 4.41991C113.919 2.55237 112.509 0.0502596 109.321 0.174367C103.189 0.411981 102.523 13.9151 103.242 23.4988C103.206 23.2628 102.865 24.6632 100.352 25.3595C99.7575 22.128 94.4454 18.8844 93.1948 20.4438C90.8539 23.3625 94.9108 28.5667 96.8324 28.9296C95.246 38.4996 85.3253 36.1294 87.1721 24.1393C90.4028 18.2632 92.8596 9.52548 92.4212 4.25059C92.2659 2.38274 90.8565 -0.119375 87.6681 0.00442084C81.5362 0.242346 80.8696 13.7455 81.5884 23.3292C81.5525 23.0894 81.2032 24.536 78.5879 25.2207C78.5003 21.0282 73.1688 19.1058 71.888 20.4435C69.6054 22.8281 72.4108 27.7207 75.006 28.9296C73.4197 38.4996 63.4989 36.1294 65.3457 24.1393C68.5765 18.2632 71.0336 9.52548 70.5949 4.25059C70.4398 2.38274 69.0301 -0.119375 65.8418 0.00442084C59.7102 0.242346 59.2167 14.4243 59.9356 24.0077C57.9159 32.4835 51.1428 43.0682 52.0227 21.8648C52.1096 20.3774 52.2045 19.8127 51.4475 19.2558C50.8801 18.823 49.5902 19.0313 48.885 19.0484C48.028 19.0821 47.8131 19.5732 47.6237 20.3157C47.1824 22.2328 47.1031 24.0913 47.0401 26.6271C46.9987 27.8133 46.9016 28.3668 46.4352 29.9842C45.9695 31.6014 43.3121 34.5572 41.8572 34.0629C39.8388 33.3832 40.501 27.802 40.8792 23.9675C41.1944 20.9371 40.1852 19.5763 37.5995 19.0815C36.0857 18.7724 35.1659 18.8198 33.5894 18.3331C32.0986 17.8728 31.7614 15.1106 28.5816 16.0312C26.8424 16.5351 27.9605 20.1445 27.5425 22.8197C25.4875 35.9791 21.2116 36.3405 19.2279 29.9481C28.162 8.51578 21.8124 0.0664747 18.0955 0.0664747C14.2243 0.0664747 9.79909 2.67835 11.673 19.3899C10.7618 19.1295 10.4817 18.9892 9.48424 18.9892C3.84323 18.9892 0 23.4558 0 28.9658C0 34.4758 3.84355 38.9427 9.48455 38.9427C12.8146 38.9427 15.1526 37.4594 16.9233 35.1646C18.0787 36.7852 19.4855 38.9677 22.0581 38.8695C29.7265 38.577 31.9566 23.1698 32.2198 22.3104C33.0396 22.4342 33.8151 22.6684 34.5722 22.7922C35.8335 22.9778 35.9252 23.4667 35.8966 24.7093C35.5623 35.188 37.5364 38.857 42.0145 38.857C44.5095 38.857 46.7332 36.4559 48.2651 34.739C49.4093 37.0521 51.2326 38.7862 53.6785 38.8567C59.6054 39.0011 61.8747 29.7482 61.6677 30.9659C61.5054 31.9213 63.5906 38.8046 69.6923 38.8295C77.2505 38.8607 78.6554 30.7195 78.8228 29.3559C78.8439 29.0846 78.8531 29.1127 78.8228 29.3559L78.8171 29.4385C81.2166 29.0013 82.4547 27.7412 82.4547 27.7412C82.4547 27.7412 84.3814 38.9562 91.5184 38.8299C98.9298 38.6983 100.327 31.3391 100.511 29.9041C100.535 29.5636 100.549 29.6035 100.511 29.9041C100.51 29.9181 100.509 29.9321 100.508 29.9462C103.358 28.9306 104.108 27.9112 104.108 27.9112C104.108 27.9112 105.639 38.9031 113.172 38.9992C119.884 39.0852 122.371 32.3526 122.386 29.5346C123.518 29.5464 125.612 28.8766 125.563 28.8386C125.563 28.8386 128.022 38.4491 134.888 38.9427C138.112 39.1744 140.53 37.1659 141.909 36.2498C145.148 38.8196 155.936 42.1019 162.747 30.7903C163.709 29.1669 161.642 27.2492 161.279 26.9988ZM9.21236 35.2114C5.92116 35.2114 3.81076 32.2306 3.81076 29.0166C3.81076 25.8029 5.74797 22.8222 9.03917 22.8222C10.5202 22.8222 11.3441 22.9818 12.4975 23.9644C12.7067 24.7717 13.2994 26.6339 13.5879 27.4796C13.9744 28.6112 14.4341 29.5745 14.8976 30.6228C14.2354 33.3117 12.0645 35.2114 9.21236 35.2114ZM17.2325 24.0589C17.0956 23.8453 17.1242 23.9765 16.9711 23.7748C16.3678 22.1673 15.2051 18.5794 15.0705 14.5041C14.9183 9.89406 15.7027 4.49038 18.0153 4.49038C19.5823 4.49038 21.2476 15.4418 17.2321 24.0589H17.2325ZM63.5731 19.2555C63.2019 16.5198 63.1825 4.32418 66.1716 4.66002C67.8219 5.31486 65.1251 16.8229 63.5731 19.2555ZM85.3995 19.2555C85.0283 16.5198 85.0089 4.32418 87.998 4.66002C89.6483 5.31486 86.9515 16.8229 85.3995 19.2555ZM107.053 19.4254C106.681 16.6894 106.662 4.49381 109.651 4.82965C111.301 5.48449 108.604 16.9928 107.053 19.4254ZM130.958 3.94624C133.69 3.66872 133.578 15.3579 128.092 22.7376C127.385 20.0703 126.3 4.86208 130.958 3.94593V3.94624ZM142.444 29.0989C141.566 24.7561 143.834 21.9038 146.172 21.5911C146.99 21.4632 148.174 21.9818 148.41 22.9512C148.798 24.7782 148.354 27.4883 143.121 30.9269C143.129 30.9562 142.64 30.0662 142.444 29.0989H142.444Z" fill="currentColor"/>
    </symbol>
    <symbol id="icon-codepen-logo" width="166" height="30" viewBox="0 0 166 30">
        <path d="M10.4158 7.30854C12.2761 7.30854 13.9808 7.9779 15.3062 9.08402L17.1075 6.94725C15.2965 5.43241 12.9623 4.51757 10.4164 4.51757C4.67257 4.51757 0 9.16789 0 14.8834C0 20.6002 4.67289 25.2505 10.4171 25.2485C12.9629 25.2485 15.2968 24.3337 17.1078 22.8189L15.3065 20.6821C13.9383 21.8299 12.206 22.4589 10.4164 22.4576C6.21972 22.4576 2.80484 19.0598 2.80484 14.8834C2.80451 10.7072 6.21972 7.30757 10.4171 7.30854H10.4158ZM68.074 5.11628H62.4656C62.0939 5.11637 61.7374 5.26335 61.4746 5.52492C61.2117 5.78648 61.0641 6.14121 61.064 6.51112V23.2553C61.0642 23.6252 61.212 23.9799 61.4748 24.2414C61.7375 24.503 62.0939 24.6501 62.4656 24.6505H68.0743C73.4865 24.6505 77.8891 20.2689 77.8891 14.8831C77.8891 9.4966 73.4872 5.11499 68.073 5.11628H68.0743H68.074ZM68.074 21.8605H63.8678V7.90693H68.0743C71.94 7.90693 75.0833 11.0379 75.0833 14.884C75.0849 18.7327 71.94 21.8595 68.073 21.8605H68.0743H68.074ZM85.4813 6.51177V23.256C85.4816 23.6258 85.6294 23.9805 85.8923 24.242C86.1551 24.5035 86.5115 24.6505 86.8832 24.6508H98.568V21.8605H88.2861V16.2785H94.829V13.4882H88.2858V7.9066H98.5677V5.11628H86.8832C86.6991 5.11611 86.5169 5.15208 86.3468 5.22214C86.1768 5.29219 86.0223 5.39495 85.8922 5.52452C85.7621 5.65409 85.659 5.80794 85.5887 5.97724C85.5185 6.14653 85.4825 6.32796 85.4829 6.51112H85.4813V6.51177ZM127.924 6.51177V23.256C127.924 23.6258 128.072 23.9805 128.335 24.242C128.598 24.5035 128.954 24.6505 129.326 24.6508H141.01V21.8605H130.728V16.2785H137.271V13.4882H130.728V7.9066H141.01V5.11628H129.327C129.142 5.11607 128.96 5.152 128.79 5.22202C128.62 5.29204 128.465 5.39477 128.335 5.52433C128.205 5.65389 128.101 5.80774 128.031 5.97706C127.961 6.14639 127.924 6.32787 127.925 6.51112H127.924L127.924 6.51177ZM114.58 5.11628H108.504C108.132 5.11637 107.776 5.26335 107.513 5.52492C107.25 5.78648 107.102 6.14121 107.102 6.51112V24.6508H109.907V16.2785H114.581C117.673 16.2785 120.189 13.7747 120.189 10.6976C120.189 7.62015 117.673 5.11499 114.579 5.11628H114.58ZM114.58 13.4879H109.906V7.90725H114.58C116.126 7.90725 117.384 9.15789 117.384 10.6976C117.384 12.2372 116.126 13.4892 114.579 13.4879H114.58ZM162.932 5.11628V19.4018L151.39 5.6179C151.206 5.39747 150.958 5.23898 150.68 5.16405C150.401 5.08912 150.107 5.10139 149.836 5.19919C149.565 5.29685 149.331 5.47516 149.165 5.70989C149 5.94461 148.911 6.22437 148.911 6.51112V24.6508H151.715V10.3656L163.257 24.1489C163.441 24.3691 163.689 24.5274 163.967 24.6022C164.245 24.677 164.539 24.6647 164.81 24.5669C165.081 24.4693 165.315 24.291 165.48 24.0562C165.646 23.8215 165.735 23.5417 165.735 23.255V5.11531H162.932V5.11628ZM53.0981 10.1263C53.0913 10.0902 53.0851 10.054 53.0754 10.0189C53.0695 9.99757 53.0624 9.97757 53.0553 9.9566C53.0455 9.92523 53.0344 9.89424 53.0222 9.8637C53.0135 9.84241 53.0034 9.82177 52.9937 9.80144C52.9803 9.77257 52.9657 9.74426 52.9499 9.71661C52.9386 9.69628 52.9256 9.67693 52.9133 9.65725C52.8662 9.58468 52.8119 9.51703 52.7512 9.45531C52.7344 9.43854 52.7175 9.42144 52.6994 9.40499C52.6761 9.38382 52.6519 9.36369 52.6268 9.34467C52.6073 9.32983 52.5885 9.31467 52.5684 9.3008C52.561 9.29564 52.5548 9.28951 52.547 9.28467L38.8768 0.214991C38.6658 0.074812 38.4177 0 38.164 0C37.9103 0 37.6622 0.074812 37.4512 0.214991L23.7803 9.28435C23.7726 9.28919 23.7664 9.29531 23.7589 9.30048C23.7388 9.31467 23.72 9.32951 23.7006 9.34402C23.6562 9.37732 23.6147 9.41422 23.5765 9.45435C23.5148 9.5158 23.4603 9.58397 23.4141 9.65757C23.4014 9.67725 23.3891 9.69628 23.3774 9.71693C23.3612 9.74467 23.3473 9.77306 23.334 9.80112C23.3243 9.82177 23.3139 9.84241 23.3051 9.86338C23.2928 9.89391 23.2817 9.9249 23.2718 9.95628C23.2653 9.97725 23.2578 9.99757 23.2523 10.0166C23.2426 10.0518 23.2361 10.0876 23.2296 10.124C23.2261 10.1424 23.2215 10.1605 23.2192 10.1792C23.2118 10.2346 23.208 10.2904 23.2079 10.3463V19.4182C23.2079 19.4743 23.2118 19.5305 23.2199 19.5853C23.2228 19.6053 23.228 19.6214 23.2319 19.6408C23.2384 19.6769 23.2442 19.7127 23.2562 19.7489C23.2617 19.7689 23.2682 19.7892 23.2763 19.8111C23.2863 19.8434 23.2964 19.8753 23.3087 19.9047C23.3171 19.9247 23.3288 19.9447 23.3366 19.9647C23.3729 20.0434 23.4189 20.1173 23.4737 20.1847C23.4876 20.2047 23.5019 20.2208 23.5181 20.2402C23.5385 20.264 23.5583 20.2882 23.5823 20.3095C23.5988 20.3256 23.6147 20.3453 23.6348 20.3576C23.6581 20.3776 23.6834 20.3976 23.7074 20.4185C23.7269 20.4347 23.7476 20.4466 23.7638 20.4621C23.7713 20.466 23.7758 20.474 23.7839 20.4779L37.4512 29.5521C37.6671 29.6966 37.9147 29.7689 38.1643 29.7676C38.4181 29.7671 38.6661 29.6923 38.8775 29.5524L52.5483 20.4824C52.5558 20.4779 52.5623 20.4721 52.5694 20.4669C52.5898 20.4527 52.6086 20.4379 52.6277 20.4231C52.653 20.4037 52.6777 20.3831 52.701 20.3624C52.7185 20.3466 52.7354 20.3295 52.7525 20.3127C52.7912 20.2737 52.8271 20.232 52.8598 20.1879C52.8922 20.1438 52.9225 20.0983 52.9506 20.0514C52.9671 20.0237 52.9814 19.995 52.995 19.9663C53.0047 19.9456 53.0144 19.9253 53.0235 19.9043C53.0357 19.8736 53.0467 19.8424 53.0566 19.8108C53.0634 19.7902 53.0705 19.7698 53.0767 19.7489C53.0861 19.7134 53.0926 19.6776 53.0994 19.6414C53.1026 19.6231 53.1075 19.605 53.1091 19.5863C53.1166 19.5308 53.1208 19.4756 53.1208 19.4189V10.3489C53.1204 10.293 53.1166 10.2372 53.1094 10.1818C53.1062 10.1621 53.1 10.146 53.0961 10.1263H53.0981ZM38.1637 17.9098L33.6179 14.884L38.1637 11.8576L42.7102 14.884L38.1637 17.9098ZM36.8788 9.63564L31.306 13.345L26.8079 10.3505L36.8791 3.66886V9.63564H36.8788ZM28.9942 14.8834L25.779 17.0237V12.7431L28.9946 14.8834H28.9942ZM31.306 16.4237L36.8788 20.1327V26.0989L26.8075 19.4166L31.306 16.4224V16.4234V16.4237ZM39.4492 20.1318L45.022 16.4227L49.5205 19.4169L39.4492 26.0985V20.1318ZM47.3338 14.8843L50.5493 12.7437V17.0243L47.3338 14.8834V14.8843ZM45.022 13.345L39.4492 9.63596V3.66886L49.5205 10.3505L45.022 13.345Z" fill="currentColor"/>
    </symbol>
    <symbol id="icon-mappoint" viewBox="0 0 32 44">
        <path d="M16 8.25C11.5887 8.25 8 11.9509 8 16.5C8 21.0491 11.5887 24.75 16 24.75C20.4113 24.75 24 21.0491 24 16.5C24 11.9509 20.4113 8.25 16 8.25ZM16 22C13.0592 22 10.6667 19.5327 10.6667 16.5C10.6667 13.4673 13.0592 11 16 11C18.9408 11 21.3333 13.4673 21.3333 16.5C21.3333 19.5327 18.9408 22 16 22ZM16 0C7.16342 0 0 7.38727 0 16.5C0 23.1527 2.2475 25.0105 14.3557 43.1123C15.1502 44.2958 16.8498 44.296 17.6444 43.1123C29.7525 25.0105 32 23.1527 32 16.5C32 7.38727 24.8366 0 16 0ZM16 40.7285C4.39208 23.4169 2.66667 22.0425 2.66667 16.5C2.66667 12.8272 4.05358 9.37432 6.57192 6.77729C9.09025 4.18026 12.4385 2.75 16 2.75C19.5615 2.75 22.9097 4.18026 25.4281 6.77729C27.9464 9.37432 29.3333 12.8272 29.3333 16.5C29.3333 22.0421 27.609 23.4154 16 40.7285Z" fill="currentColor"/>
    </symbol>
</svg>
