<svg xmlns="http://www.w3.org/2000/svg" style="display: none;">
    <symbol id="icon-phone" viewBox="0 0 18 29">
        <path d="M12.6 5.4V18.9H5.4V5.4H12.6ZM15.3 0H2.7C1.20938 0 0 1.20938 0 2.7V26.1C0 27.5906 1.20938 28.8 2.7 28.8H15.3C16.7906 28.8 18 27.5906 18 26.1V2.7C18 1.20938 16.7906 0 15.3 0ZM2.7 27C2.205 27 1.8 26.595 1.8 26.1V2.7C1.8 2.205 2.205 1.8 2.7 1.8H15.3C15.795 1.8 16.2 2.205 16.2 2.7V26.1C16.2 26.595 15.795 27 15.3 27H2.7ZM13.725 3.6H4.275C3.90375 3.6 3.6 3.90375 3.6 4.275V20.025C3.6 20.3963 3.90375 20.7 4.275 20.7H13.725C14.0962 20.7 14.4 20.3963 14.4 20.025V4.275C14.4 3.90375 14.0962 3.6 13.725 3.6ZM11.025 23.4H6.975C6.60375 23.4 6.3 23.7038 6.3 24.075V24.525C6.3 24.8963 6.60375 25.2 6.975 25.2H11.025C11.3962 25.2 11.7 24.8963 11.7 24.525V24.075C11.7 23.7038 11.3962 23.4 11.025 23.4Z" fill="currentColor"/>
    </symbol>
    <symbol id="icon-arrow-right" viewBox="0 0 14 8" xmlns="http://www.w3.org/2000/svg">
        <path d="M14.3536 4.35355C14.5488 4.15829 14.5488 3.84171 14.3536 3.64645L11.1716 0.464466C10.9763 0.269204 10.6597 0.269204 10.4645 0.464466C10.2692 0.659728 10.2692 0.976311 10.4645 1.17157L13.2929 4L10.4645 6.82843C10.2692 7.02369 10.2692 7.34027 10.4645 7.53553C10.6597 7.7308 10.9763 7.7308 11.1716 7.53553L14.3536 4.35355ZM0 4.5H14V3.5H0V4.5Z" fill="currentColor"/>
    </symbol>
    <symbol id="icon-arrow-down-long" viewBox="0 0 8 28">
        <path d="M3.64645 27.3536C3.84171 27.5488 4.15829 27.5488 4.35355 27.3536L7.53553 24.1716C7.7308 23.9763 7.7308 23.6597 7.53553 23.4645C7.34027 23.2692 7.02369 23.2692 6.82843 23.4645L4 26.2929L1.17157 23.4645C0.976311 23.2692 0.659728 23.2692 0.464466 23.4645C0.269204 23.6597 0.269204 23.9763 0.464466 24.1716L3.64645 27.3536ZM3.5 0L3.5 27H4.5L4.5 0L3.5 0Z" fill="currentColor"/>
    </symbol>
</svg>
